<?xml version="1.0" standalone="no"?><!DOCTYPE svg PUBLIC "-//W3C//DTD SVG 1.1//EN" "http://www.w3.org/Graphics/SVG/1.1/DTD/svg11.dtd"><svg t="1546148742261" class="icon" style="" viewBox="0 0 1024 1024" version="1.1" xmlns="http://www.w3.org/2000/svg" p-id="6143" xmlns:xlink="http://www.w3.org/1999/xlink" width="200" height="200"><defs><style type="text/css"></style></defs><path d="M808.6 172l-404 404c-3 3-4.6 7-4.6 11.2v53c0 8.8 7.2 15.8 15.8 15.8h52.6c4.2 0 8.4-1.6 11.4-4.6l404.2-404c6.2-6.2 6.2-16.2 0-22.4L831 172c-6.2-6.2-16.2-6.2-22.4 0z m142.6-38l-28.8-28.8-0.4-0.4c-6.2-5.4-14.4-8.8-23-8.8-8.8 0-17 3.4-23.2 9l-22.6 22.8c-3 3.2-3 8.2 0 11.2L874 159.8l43.4 43.4c3.2 3.2 8.2 3.2 11.4 0l22.6-22.6c5.6-6.2 8.8-14.2 8.8-23.2-0.2-8.8-3.4-17.2-9-23.4z" fill="#36ab60" p-id="6144"></path><path d="M500 684c-6 6-14.2 9.4-22.6 9.4h-82.8c-17.6 0-32-14.4-32-32v-83c0-8.4 3.4-16.6 9.4-22.6l1.6-1.6 295.2-295.2c5-5 1.4-13.6-5.6-13.6H181.4C116.6 245.4 64 298 64 362.8v448c0 64.8 52.6 117.4 117.4 117.4h512c64.8 0 117.4-52.6 117.4-117.4v-418c0-7.2-8.6-10.6-13.6-5.6L501.6 682.4l-1.6 1.6z" fill="#36ab60" p-id="6145"></path></svg>